<?xml version="1.0" encoding="UTF-8"?>
<svg id="Livello_2" data-name="Livello 2" xmlns="http://www.w3.org/2000/svg" viewBox="0 0 669.43 250.43">
  <defs>
    <style>
      .cls-1 {
        fill: #fff;
      }
    </style>
  </defs>
  <g id="Livello_2-2" data-name="Livello 2">
    <path class="cls-1" d="M14.87,226.36C43.91,156.32,66.92,83.87,83.61,9.9h-14.46c12.3,76.15,20.89,152.86,25.83,229.83l14.73-1.99c-14.64-40.95-41.85-76.22-77.77-100.76-1.26,4.66-2.52,9.32-3.79,13.98,34.41,1.83,69.14-8.62,96.68-29.36,3.26-2.45,4.86-6.45,2.69-10.26-1.83-3.21-7.03-5.12-10.26-2.69-25.67,19.33-57.02,29.02-89.11,27.31-7.95-.42-9.49,10.08-3.79,13.98,32.5,22.2,57.62,54.72,70.87,91.79,2.67,7.47,15.31,6.99,14.73-1.99-5.02-78.31-13.85-156.35-26.37-233.82-1.19-7.39-12.91-6.91-14.46,0C52.46,79.88,29.45,152.33.4,222.38c-1.56,3.77,1.69,8.21,5.24,9.23,4.3,1.23,7.68-1.51,9.23-5.24h0Z"/>
    <path class="cls-1" d="M124.85,131.89c19.05-11.88,34.73-29.04,44.5-49.29,8.73-18.09,20.58-51.05.12-65.52-9.18-6.5-21.03-4.17-27.86,4.45-7.25,9.14-8.73,21.43-10.65,32.56-4.85,28.05-7.33,56.52-7.24,84.99.04,13.37.24,26.99,1.97,40.26,1.33,10.16,4.73,21.26,14.15,26.76,23.87,13.97,44.39-18.76,53.47-35.98,5.82-11.03,11.03-23.19,13.61-35.44,2.36-11.22-1.13-26.16-14.96-27.09-11.96-.8-18.92,10.95-22.41,20.68-4.63,12.91-7.04,26.76-7.39,40.46-.35,13.66,1.81,29.41,15.07,36.61,5.8,3.15,12.58,3.62,18.61.95,6.07-2.69,10.19-7.88,14.18-12.98,18.59-23.69,34.15-49.5,46.25-77.08,2.94-6.71-3.18-13.96-10.26-10.26-12.44,6.49-14.87,22.48-9.83,34.52,5.87,14.02,19.38,22.79,25.87,36.41,2.56,5.36,3.77,12.08,1.34,17.74-1.9,4.42-6.35,7.36-11.21,6.12-5.3-1.35-4.84-6.77-2.7-10.82,3.35-6.35,10.75-9.75,16.55-13.43,12.7-8.07,23.55-18.62,31.89-31.15,7.98-12,16.72-30.18,4.19-42.34-11.48-11.14-28.08-2.25-29.33,12.48-1.27,14.99,13.25,27.94,21.94,38.48,9.28,11.25,18.43,24.3,16.71,39.65-.62,5.49-2.92,11.18-7.44,14.6-2.46,1.87-6.72,3.78-9.66,1.85-1.19-.78-2.36-3.2-1.14-3.28,9.58-.63,9.65-15.64,0-15-8,.53-14.6,6.24-15.4,14.43s4.6,15.33,12.02,18.21c15.37,5.97,30.23-7.28,34.78-21.1,4.58-13.93,1.08-29.4-6.05-41.78-4.16-7.21-9.48-13.72-14.79-20.1s-11.36-12.27-14.74-19.53c-1.11-2.39-2.11-5.62-.41-8,1.09-1.54,2.14-1.31,3.54.29,4.94,5.66-2.78,16.67-5.85,21.55-4.24,6.74-9.39,12.8-15.24,18.19-6.05,5.57-12.92,9.6-19.76,14.08s-13.34,10.12-16.5,18.11c-2.91,7.35-2.46,15.9,2.6,22.2,8.88,11.06,26.97,9.44,35.59-1.02,12.91-15.68,4.99-36.27-6.08-50.29-5.47-6.92-12.46-13.05-16.37-21.08-2.72-5.58-3.22-13.76,3.07-17.04l-10.26-10.26c-8.33,18.97-18.24,37.21-29.76,54.43-5.57,8.32-11.38,16.61-17.87,24.25-2.14,2.52-4.98,6.14-8.7,5.76s-6.51-3.91-7.85-7.05c-3.77-8.9-2.27-20.95-.99-30.22s3.32-20.3,8.11-28.57c.77-1.34,2.97-5.25,4.96-4.66,3.08.91,1.27,7.94.82,9.76-2.3,9.36-5.83,18.52-10.13,27.13s-9.14,17.02-15.21,24.31c-4.1,4.93-12.19,13.43-19.3,9.35-5.75-3.29-6.74-12.66-7.24-18.53-.94-10.84-1.33-21.75-1.43-32.63-.21-22.29,1.1-44.63,4.04-66.74,1.41-10.63,3.07-21.32,5.41-31.79,1.01-4.51,3.04-14.16,8.7-15.22,3.62-.68,6.58,3.12,7.68,6.06,1.8,4.78.97,10.49.05,15.36-1.75,9.25-4.69,18.31-8.9,26.73-8.72,17.44-21.9,32.23-38.46,42.56-8.17,5.1-.65,18.08,7.57,12.95h0Z"/>
    <path class="cls-1" d="M328.09,152.37c-4.82,11.17-9.9,23.54-5.88,35.79,3.32,10.1,11.88,18.23,23.01,17.91,12.56-.37,21.66-9.43,27.85-19.52s12.92-21.81,13.75-34.06c.7-10.31-3.51-21.6-12.63-27.12s-20.69-3.9-29.37,1.65c-15.55,9.94-24.87,36.87-7.14,49.63,9.96,7.17,23.47,3.71,31.75-4.41,9.75-9.57,10.95-23.94,11.59-36.81l-14.73,1.99c2.31,13.49,4.15,27.16,6.95,40.55,1.94,9.25,7.75,19.29,18.56,18.52,11.56-.82,15.46-13.19,18.35-22.43,4.21-13.45,8.43-26.9,12.64-40.36l-13.71,1.79c7.99,17.33,11.08,36.31,9.69,55.29-.65,8.9,12.05,9.52,14.73,1.99,6.35-17.83,12.7-35.65,19.05-53.48h-14.46c2.49,14.93,5.87,31.07,17.79,41.55s27.97,11.73,41.13,2.92c11.83-7.92,21.19-23.27,23.41-37.35,1.11-7.01-.1-14.46-6.09-18.98s-14.56-3.91-20.71.27c-6.45,4.39-9.38,11.7-11.62,18.86-2.51,8.03-4.91,16.46-4.02,24.95,1.5,14.23,14.19,27.95,29.47,23.13,13.85-4.37,21.31-20.32,27.18-32.37,6.84-14.05,12.12-28.88,15.59-44.12,7.82-34.38,6.88-70.58-3.17-104.39-2.05-6.88-12.67-7.39-14.46,0-7.88,32.43-11.62,65.9-10.8,99.28.41,16.71,1.98,33.38,4.58,49.89,1.13,7.15,2.85,14.58,8.13,19.9,4.88,4.91,12.32,7.4,19.02,5.12s10.65-9,12.2-15.76c.94-4.11.47-14.25,5.87-15.03-3.08-1.75-6.15-3.49-9.23-5.24,1.9,13.45,3.79,26.89,5.69,40.34,1.22,8.69,14.39,6.05,14.73-1.99.94-22.2,1.89-44.41,2.83-66.61l-14.73,1.99c5.45,21.55,33.35,28.76,48.05,11.66l-12.54-3.31c.89,4.7,1.78,9.41,2.67,14.11l14.46-3.99c-.68-2.96-1.36-5.93-2.04-8.89-1.95-8.47-14.43-6.25-14.73,1.99-.49,13.7,1.46,28.31,7.17,40.88,5.49,12.1,18.2,17.15,29.92,9.98,10.75-6.58,18.54-19.52,22.86-31.06,4.16-11.11,3.91-23.97-3.06-33.93s-19.17-14.08-30.7-9.83c-12.34,4.55-19.46,15.86-23.45,27.83-3.3,9.9-4.99,21.52-1.24,31.55,4.15,11.09,14.75,17.93,26.61,16.99,14.2-1.13,24.68-11.55,28.81-24.78,4.63-14.83.51-30.38-4.42-44.54-3.16-9.06-17.65-5.16-14.46,3.99,4.85,13.92,11.97,36.68-2.88,47.47-4.74,3.45-12.32,4.44-16.83.11-4.67-4.48-4.43-12.42-3.37-18.28,1.34-7.43,3.98-15.72,9.21-21.36,4.41-4.76,12.13-8.19,17.87-3.53,13.02,10.55,1.69,30.86-6.3,40.61-2.14,2.62-6.05,7.23-9.84,7.31-3.53.07-5.07-4.37-6.08-7.07-3.85-10.35-5.2-21.37-4.81-32.35l-14.73,1.99c.68,2.96,1.36,5.93,2.04,8.89,2.18,9.48,16.24,5.4,14.46-3.99-.89-4.7-1.78-9.41-2.67-14.11-1.02-5.38-8.99-7.43-12.54-3.31-7.31,8.51-20.14,6.15-22.97-5.04-2.13-8.41-14.38-6.29-14.73,1.99-.94,22.2-1.89,44.41-2.83,66.61l14.73-1.99c-1.9-13.45-3.79-26.89-5.69-40.34-.61-4.35-5.66-5.75-9.23-5.24-7.51,1.08-12.04,7.73-14.22,14.46-1.09,3.38-1.26,6.93-1.99,10.39-.31,1.48-.81,5.32-2.54,6.14-8.35,3.93-10.91-38.75-11.26-43.68-2.66-37.69.54-75.55,9.46-112.25h-14.46c13.2,44.4,9.75,93.53-10.18,135.45-4.04,8.5-8.81,20.6-17.01,25.97-3.15,2.06-6.3,1.8-8.96-.92-3.78-3.87-4.09-9.51-3.39-14.6.38-2.77,6.36-28.95,12.41-24.17,2.14,1.68-.77,8.39-1.49,10.26-2.12,5.54-4.96,11.21-8.81,15.75-7.43,8.76-19.16,12.79-28.66,4.75-10-8.46-11.91-22.79-13.94-34.93-1.32-7.95-12.24-6.25-14.46,0-6.35,17.83-12.7,35.65-19.05,53.48l14.73,1.99c1.59-21.71-2.65-43.13-11.74-62.86-2.86-6.21-11.94-3.87-13.71,1.79-3.13,10.01-6.27,20.02-9.4,30.03-1.57,5-3.05,10.04-4.7,15.02-.72,2.18-1.69,5.95-4,7.01,1.33-.61.6.86-.14-.89-.47-1.12-1.03-2.06-1.43-3.22-1.4-4.07-1.79-8.55-2.51-12.76-1.79-10.49-3.59-20.98-5.38-31.48-1.48-8.69-14.33-6.05-14.73,1.99-.36,7.37-.57,15.4-4.13,22.06-2.3,4.29-7.2,8.7-12.45,8.12-11.5-1.27-4.87-18.69.02-23.31,3.68-3.48,9.47-6.5,14.66-5.07,5.65,1.56,7.79,7.83,7.79,13.16,0,7.65-4,14.76-7.59,21.26s-7.01,13.89-13.46,17.6c-5.69,3.27-11.43,1.75-13.96-4.44-3.31-8.09.96-17.45,4.16-24.87,1.62-3.75,1.08-8-2.69-10.26-3.15-1.89-8.66-1.02-10.26,2.69h0Z"/>
  </g>
</svg>