<?xml version="1.0" encoding="UTF-8"?>
<svg id="Livello_2" data-name="Livello 2" xmlns="http://www.w3.org/2000/svg" viewBox="0 0 146.28 146.18">
  <g id="Livello_1-2" data-name="Livello 1">
    <g>
      <polygon points="87.09 23.07 91.25 23.84 95.04 3.43 95.09 3.19 90.93 2.42 89.35 10.95 80.49 9.31 82.08 .77 77.94 0 74.14 20.41 74.1 20.65 78.24 21.43 79.83 12.86 88.69 14.5 87.09 23.07"/>
      <path d="M95.49,25.06c.82,1.47,2.04,2.69,3.62,3.62,1.58.92,3.23,1.39,4.91,1.39h0c1.69,0,3.32-.49,4.86-1.45,1.53-.96,2.88-2.42,4.02-4.35,1.13-1.93,1.75-3.83,1.84-5.63.08-1.81-.29-3.48-1.11-4.95-.82-1.47-2.04-2.68-3.62-3.61-1.58-.92-3.23-1.39-4.9-1.39h-.02c-1.69,0-3.32.49-4.86,1.45-1.53.96-2.89,2.42-4.02,4.35-1.13,1.93-1.75,3.82-1.83,5.63-.09,1.81.29,3.48,1.11,4.95ZM105.44,12.62c.89,0,1.78.25,2.63.75.91.54,1.6,1.24,2.03,2.1.43.86.59,1.86.48,2.98-.12,1.13-.57,2.36-1.33,3.67s-1.62,2.3-2.55,2.96c-.92.65-1.87,1-2.83,1.04-.98.04-1.92-.21-2.83-.75-.92-.54-1.6-1.24-2.03-2.1-.44-.86-.59-1.86-.48-2.98.12-1.13.57-2.36,1.33-3.67.76-1.3,1.62-2.3,2.55-2.95.92-.65,1.87-1,2.83-1.04.07,0,.13,0,.2,0Z"/>
      <polygon points="109.86 36.02 120.59 27.75 113.31 40.15 113.23 40.29 115.06 42.67 129.04 38.76 118.33 47.01 120.81 50.23 137.25 37.56 137.45 37.41 134.42 33.48 119.06 37.69 126.96 24.05 127.05 23.91 124.01 19.98 107.38 32.8 109.86 36.02"/>
      <polygon points="124.68 64.94 128.14 63.9 125.35 54.61 130.23 53.14 132.8 61.69 136.26 60.65 133.69 52.1 138.54 50.64 141.32 59.85 144.78 58.81 140.79 45.56 120.67 51.61 124.68 64.94"/>
      <polygon points="145.61 80.2 146.28 76.04 125.79 72.74 125.54 72.7 124.87 76.86 133.47 78.25 132.04 87.14 123.43 85.75 122.76 89.92 143.26 93.23 143.5 93.26 144.17 89.09 135.6 87.71 137.04 78.82 145.61 80.2"/>
      <path d="M132.23,94.69c-1.95-1.08-3.86-1.66-5.67-1.7-1.83-.05-3.47.37-4.93,1.22-1.45.85-2.64,2.1-3.53,3.7-.89,1.6-1.32,3.27-1.28,4.95.04,1.69.57,3.31,1.56,4.83.99,1.51,2.49,2.83,4.45,3.92s3.87,1.66,5.68,1.7c.09,0,.17,0,.26,0,1.71,0,3.28-.41,4.67-1.23,1.45-.86,2.64-2.1,3.53-3.7.89-1.6,1.32-3.27,1.28-4.95-.04-1.69-.57-3.31-1.57-4.82-.99-1.51-2.49-2.83-4.45-3.92ZM131.56,108.6c-.85.45-1.84.64-2.96.55-1.13-.09-2.37-.51-3.7-1.25-1.32-.73-2.33-1.57-3.01-2.48-.67-.9-1.04-1.84-1.1-2.8s.17-1.92.68-2.85c.51-.93,1.21-1.63,2.06-2.08.71-.38,1.52-.57,2.41-.57.18,0,.36,0,.55.02,1.13.09,2.37.51,3.7,1.25,1.32.73,2.34,1.57,3.01,2.48.67.9,1.04,1.84,1.1,2.8.06.96-.17,1.92-.68,2.85-.51.93-1.21,1.63-2.05,2.08Z"/>
      <polygon points="111.03 108.82 119.55 119.36 106.83 112.29 104.5 114.18 108.74 128.07 100.23 117.55 97.07 120.11 110.29 136.44 114.15 133.32 109.57 118.06 123.54 125.72 127.4 122.6 114.19 106.27 111.03 108.82"/>
      <polygon points="95.7 120 82.47 124.33 83.6 127.76 92.82 124.75 94.41 129.59 85.92 132.37 87.04 135.8 95.53 133.03 97.11 137.84 87.96 140.83 89.08 144.27 102.24 139.97 95.78 120.24 95.7 120"/>
      <polygon points="69.36 133.42 60.44 132.2 61.63 123.57 57.44 123 54.62 143.56 54.59 143.81 58.77 144.38 59.95 135.78 68.87 137 67.69 145.61 71.87 146.18 74.69 125.61 74.72 125.37 70.55 124.79 69.36 133.42"/>
      <path d="M49.34,118.53c-1.62-.85-3.3-1.24-4.98-1.16-1.68.08-3.29.65-4.79,1.68-1.49,1.03-2.77,2.56-3.81,4.54-1.04,1.98-1.57,3.91-1.57,5.71s.45,3.46,1.34,4.89c.89,1.43,2.16,2.59,3.78,3.44,1.48.78,3.01,1.17,4.54,1.17.15,0,.29,0,.44-.01,1.68-.08,3.29-.65,4.79-1.68,1.49-1.03,2.77-2.56,3.81-4.54,1.04-1.98,1.56-3.9,1.56-5.71s-.45-3.46-1.34-4.9c-.89-1.43-2.16-2.59-3.78-3.44ZM41.1,134.24c-.94-.49-1.66-1.17-2.13-2s-.68-1.83-.62-2.95c.07-1.13.46-2.38,1.16-3.73.7-1.34,1.51-2.37,2.41-3.07.88-.69,1.82-1.08,2.78-1.17.14-.01.28-.02.42-.02.82,0,1.64.21,2.44.63.94.49,1.66,1.17,2.13,2,.47.84.68,1.83.62,2.95-.07,1.13-.46,2.38-1.16,3.73-.7,1.34-1.51,2.37-2.41,3.07-.88.69-1.82,1.08-2.78,1.17-.96.09-1.92-.12-2.86-.61Z"/>
      <polygon points="38.27 111.71 27.94 120.48 34.7 107.6 32.76 105.31 18.98 109.88 29.29 101.13 26.66 98.03 10.83 111.46 10.64 111.62 13.85 115.41 29 110.47 21.67 124.62 24.88 128.4 40.9 114.81 38.27 111.71"/>
      <polygon points="26.73 96.64 22.09 83.52 18.68 84.72 21.92 93.87 17.11 95.57 14.13 87.15 10.73 88.36 13.7 96.78 8.92 98.47 5.72 89.39 2.31 90.6 6.92 103.65 26.49 96.73 26.73 96.64"/>
      <polygon points="21.35 71.62 12.69 70.64 13.7 61.7 22.36 62.68 22.84 58.48 1.96 56.12 1.49 60.32 10.11 61.29 9.1 70.24 .47 69.26 0 73.45 20.88 75.81 21.35 71.62"/>
      <path d="M8.52,50.47c1.06,1.46,2.62,2.71,4.63,3.7,1.92.95,3.77,1.43,5.51,1.43.08,0,.15,0,.23,0,1.81-.04,3.45-.53,4.86-1.45,1.41-.92,2.54-2.22,3.35-3.86.81-1.64,1.16-3.33,1.04-5.01-.12-1.68-.72-3.28-1.79-4.75-1.06-1.46-2.62-2.71-4.63-3.7-2.01-.99-3.97-1.49-5.75-1.43-1.81.04-3.45.53-4.86,1.46-1.41.92-2.54,2.22-3.35,3.87-.81,1.64-1.16,3.33-1.04,5.01.12,1.68.72,3.28,1.79,4.75ZM11.2,42.42h0c.47-.95,1.13-1.68,1.95-2.18.77-.46,1.67-.69,2.69-.69.08,0,.16,0,.24,0,1.13.04,2.4.4,3.75,1.07,1.36.67,2.41,1.46,3.13,2.33.71.87,1.13,1.79,1.24,2.75.11.96-.07,1.92-.54,2.88-.47.95-1.13,1.68-1.95,2.18-.83.5-1.81.73-2.93.69-1.13-.04-2.4-.4-3.75-1.07s-2.41-1.46-3.13-2.33c-.71-.87-1.13-1.79-1.24-2.75-.11-.96.07-1.92.54-2.87Z"/>
      <polygon points="33.66 39.04 24.65 28.92 37.69 35.38 39.93 33.39 35.04 19.71 44.03 29.81 47.07 27.11 33.1 11.42 29.39 14.72 34.68 29.75 20.37 22.75 16.66 26.05 30.63 41.75 33.66 39.04"/>
      <polygon points="61.48 22.2 60.2 18.82 51.12 22.27 49.31 17.5 57.66 14.33 56.38 10.95 48.03 14.12 46.23 9.39 55.22 5.97 53.94 2.59 41 7.51 48.47 27.14 61.48 22.2"/>
    </g>
  </g>
</svg>