<?xml version="1.0" encoding="UTF-8"?>
<svg id="Livello_2" data-name="Livello 2" xmlns="http://www.w3.org/2000/svg" viewBox="0 0 143.72 143.66">
  <g id="Livello_1-2" data-name="Livello 1">
    <g>
      <polygon points="87.06 8.41 87.68 22.2 90.97 22.98 100.53 5.81 96.94 4.96 90.42 17.7 90.25 17.66 89.92 3.29 86.66 2.52 79.91 15.2 79.74 15.16 79.63 .85 76.05 0 76.87 19.63 80.16 20.41 86.92 8.38 87.06 8.41"/>
      <path d="M99.27,26.43c.6,1.39,1.58,2.58,2.92,3.55s2.76,1.53,4.28,1.68,3-.14,4.47-.87,2.8-1.91,4-3.56c1.2-1.65,1.91-3.28,2.15-4.9.24-1.62.05-3.12-.55-4.52-.61-1.39-1.58-2.57-2.92-3.55s-2.77-1.53-4.28-1.68c-1.51-.15-3,.14-4.47.87-1.47.73-2.8,1.91-4,3.56-1.19,1.64-1.91,3.28-2.14,4.89-.24,1.62-.05,3.13.55,4.52ZM102.06,22.37c.22-1.06.75-2.17,1.59-3.33.84-1.16,1.73-2.01,2.68-2.55s1.88-.78,2.82-.73,1.82.38,2.65.98,1.42,1.34,1.76,2.22c.34.87.4,1.84.18,2.9-.22,1.06-.75,2.17-1.59,3.33-.84,1.16-1.74,2.01-2.68,2.55s-1.88.78-2.82.73c-.94-.05-1.82-.38-2.65-.98-.83-.6-1.42-1.34-1.76-2.22-.34-.87-.4-1.84-.18-2.9Z"/>
      <path d="M112.47,39.29l5.66-4,2.01,2.85-3.51,7.03,2.21,3.12,3.76-7.68c.11.07.22.15.33.22.97.54,1.97.76,2.99.66,1.02-.09,2.03-.49,3.02-1.19.98-.7,1.7-1.51,2.15-2.45.45-.94.59-1.96.44-3.05-.16-1.1-.66-2.24-1.49-3.43l-4.09-5.79-15.44,10.91,1.98,2.8ZM127.39,32.6c.49.7.79,1.34.9,1.93.11.59.04,1.12-.19,1.62-.24.49-.63.93-1.18,1.32-.55.39-1.08.61-1.61.66-.53.05-1.04-.08-1.55-.38s-1-.8-1.49-1.5l-1.82-2.58,5.13-3.62,1.81,2.56Z"/>
      <polygon points="120.29 52.72 125.66 51.01 128.65 52.26 122.63 60.09 123.88 64.01 131.58 53.83 141.88 58.22 140.62 54.24 130.1 49.84 130.03 49.62 138.31 46.99 137.27 43.72 119.25 49.45 120.29 52.72"/>
      <polygon points="142.91 78.77 143.72 75.17 124.1 76.21 123.36 79.51 135.46 86.13 135.43 86.28 121.65 87.05 120.91 90.34 138.18 99.72 138.99 96.12 126.18 89.74 126.21 89.57 140.58 89.08 141.32 85.81 128.57 79.2 128.61 79.03 142.91 78.77"/>
      <path d="M126.97,100.19c-1.66-1.18-3.3-1.87-4.92-2.09-1.62-.22-3.13-.02-4.51.6-1.39.62-2.56,1.6-3.52,2.95-.96,1.35-1.5,2.78-1.63,4.29s.18,3,.92,4.46c.74,1.46,1.94,2.78,3.6,3.96s3.3,1.88,4.92,2.1c1.62.22,3.13.02,4.51-.6s2.56-1.61,3.51-2.96c.96-1.35,1.5-2.78,1.63-4.29.13-1.51-.18-3-.92-4.46s-1.94-2.78-3.6-3.96ZM127.35,111.12c-.6.84-1.33,1.43-2.2,1.78s-1.84.42-2.9.21c-1.06-.21-2.18-.73-3.35-1.56s-2.03-1.71-2.58-2.65c-.55-.94-.8-1.87-.76-2.81s.36-1.82.96-2.66c.6-.84,1.33-1.43,2.2-1.78s1.84-.42,2.9-.21c1.06.21,2.18.73,3.35,1.56,1.17.83,2.03,1.71,2.58,2.65.55.94.8,1.87.76,2.81-.04.94-.36,1.82-.96,2.66Z"/>
      <path d="M104.81,112.03l4.05,5.61-2.83,2.04-7.07-3.44-3.1,2.24,7.72,3.68c-.07.11-.15.22-.21.34-.52.98-.74,1.97-.63,3,.1,1.02.51,2.02,1.22,3.01.71.98,1.53,1.69,2.47,2.12s1.96.57,3.06.4c1.1-.17,2.23-.68,3.41-1.53l5.75-4.15-11.07-15.33-2.78,2.01ZM111.67,126.88c-.69.5-1.33.81-1.92.92s-1.12.06-1.62-.17c-.49-.23-.94-.62-1.33-1.16-.39-.54-.62-1.08-.67-1.6-.06-.53.07-1.04.37-1.55.3-.51.79-1.01,1.48-1.51l2.56-1.85,3.68,5.09-2.54,1.84Z"/>
      <polygon points="91.49 119.99 93.25 125.34 92.03 128.34 84.14 122.41 80.23 123.7 90.5 131.29 86.21 141.64 90.18 140.33 94.47 129.77 94.69 129.7 97.41 137.95 100.66 136.87 94.74 118.92 91.49 119.99"/>
      <polygon points="64.71 123.34 58.22 135.52 58.07 135.49 57.16 121.72 53.85 121.01 44.67 138.38 48.27 139.15 54.52 126.27 54.68 126.31 55.33 140.67 58.6 141.37 65.08 128.55 65.25 128.59 65.66 142.89 69.26 143.66 68.02 124.05 64.71 123.34"/>
      <path d="M45.46,117.73c-.63-1.38-1.63-2.54-2.99-3.49s-2.8-1.47-4.31-1.59c-1.51-.11-3,.21-4.45.96s-2.76,1.97-3.92,3.65c-1.16,1.67-1.84,3.32-2.05,4.95s.01,3.12.65,4.5,1.63,2.54,2.99,3.48,2.8,1.47,4.31,1.59c1.51.11,3-.21,4.45-.96s2.76-1.97,3.92-3.65c1.16-1.67,1.84-3.31,2.04-4.94s-.01-3.13-.65-4.51ZM42.76,121.84c-.2,1.07-.7,2.19-1.52,3.37-.82,1.18-1.69,2.05-2.62,2.6-.93.56-1.86.82-2.8.79-.94-.03-1.83-.34-2.67-.93-.84-.59-1.45-1.31-1.8-2.18-.36-.87-.44-1.83-.24-2.9.2-1.07.7-2.19,1.52-3.37.82-1.18,1.69-2.05,2.62-2.6.93-.56,1.86-.82,2.8-.79.94.03,1.83.34,2.67.93.84.59,1.45,1.31,1.8,2.18s.44,1.83.24,2.9Z"/>
      <path d="M32,105.14l-5.57,4.11-2.07-2.8,3.36-7.1-2.27-3.07-3.6,7.75c-.11-.07-.22-.15-.34-.21-.98-.52-1.98-.72-3-.6-1.02.12-2.02.53-2.99,1.25-.97.72-1.67,1.55-2.1,2.5-.43.95-.55,1.97-.37,3.06.18,1.09.7,2.23,1.57,3.39l4.21,5.7,15.21-11.23-2.04-2.76ZM17.23,112.15c-.51-.69-.82-1.32-.94-1.91s-.07-1.12.16-1.62.61-.94,1.15-1.34c.54-.4,1.07-.63,1.6-.69.52-.06,1.04.05,1.55.35s1.02.78,1.53,1.47l1.88,2.54-5.05,3.73-1.87-2.52Z"/>
      <polygon points="23.9 91.89 18.57 93.71 15.55 92.53 21.4 84.57 20.07 80.67 12.59 91.02 2.19 86.84 3.55 90.8 14.15 94.98 14.23 95.19 6 98 7.11 101.24 25.01 95.13 23.9 91.89"/>
      <polygon points="20.27 65.16 8.03 58.79 8.05 58.65 21.81 57.59 22.49 54.28 5.02 45.27 4.29 48.88 17.23 55 17.2 55.16 2.85 55.96 2.18 59.24 15.07 65.58 15.03 65.75 .74 66.32 0 69.93 19.59 68.47 20.27 65.16"/>
      <path d="M16.22,44.56c1.68,1.14,3.33,1.8,4.96,1.99,1.63.18,3.13-.05,4.5-.7s2.53-1.66,3.46-3.03c.93-1.37,1.44-2.81,1.54-4.33.1-1.51-.24-2.99-1.01-4.44-.77-1.44-2-2.74-3.69-3.88s-3.34-1.81-4.97-1.99c-1.63-.19-3.12.05-4.5.7s-2.52,1.66-3.45,3.03c-.93,1.37-1.44,2.81-1.54,4.33s.24,2.99,1.01,4.44c.77,1.44,2,2.74,3.69,3.88ZM15.61,33.65c.58-.85,1.3-1.46,2.16-1.83.86-.37,1.83-.46,2.9-.27,1.07.19,2.2.68,3.38,1.49,1.19.81,2.06,1.67,2.63,2.59.57.92.84,1.86.82,2.79-.02.94-.32,1.83-.9,2.68-.58.85-1.3,1.46-2.16,1.83-.86.37-1.83.46-2.9.27-1.07-.19-2.2-.68-3.38-1.49s-2.06-1.67-2.63-2.59c-.57-.92-.84-1.85-.82-2.79.02-.94.32-1.83.9-2.68Z"/>
      <path d="M38.11,32.27l-4.17-5.53,2.78-2.1,7.14,3.29,3.05-2.3-7.79-3.52c.07-.11.15-.23.21-.34.5-.99.69-1.99.57-3.01-.13-1.02-.55-2.01-1.29-2.98-.73-.96-1.57-1.65-2.52-2.07-.95-.42-1.97-.53-3.07-.34-1.09.19-2.22.73-3.38,1.6l-5.66,4.27,11.4,15.09,2.73-2.07ZM30.94,17.58c.68-.52,1.31-.84,1.9-.96.58-.13,1.12-.08,1.62.14.5.22.95.6,1.35,1.13s.64,1.06.71,1.59-.04,1.04-.33,1.56c-.29.52-.77,1.03-1.45,1.54l-2.52,1.9-3.78-5.01,2.5-1.89Z"/>
      <polygon points="51.28 24.03 49.4 18.72 50.55 15.68 58.57 21.45 62.46 20.07 52.03 12.71 56.09 2.27 52.15 3.66 48.09 14.31 47.87 14.39 44.98 6.2 41.75 7.34 48.05 25.17 51.28 24.03"/>
    </g>
  </g>
</svg>