<?xml version="1.0" encoding="UTF-8"?>
<svg id="Livello_2" data-name="Livello 2" xmlns="http://www.w3.org/2000/svg" viewBox="0 0 147.89 147.81">
  <defs>
    <style>
      .cls-1 {
        stroke: #000;
        stroke-miterlimit: 10;
        stroke-width: .5px;
      }
    </style>
  </defs>
  <g id="Livello_1-2" data-name="Livello 1">
    <g>
      <polygon class="cls-1" points="90.31 9.6 90.47 9.64 90.89 24.6 94.44 25.51 105.12 7.06 101.24 6.07 93.94 19.78 93.77 19.73 93.66 4.14 90.13 3.24 82.59 16.87 82.4 16.83 82.54 1.31 78.67 .32 79.22 21.63 82.77 22.53 90.31 9.6"/>
      <path class="cls-1" d="M101.71,23.96c-.3,1.75-.14,3.39.48,4.92s1.64,2.83,3.07,3.92c1.43,1.09,2.96,1.73,4.59,1.93,1.63.2,3.26-.08,4.87-.83,1.61-.75,3.08-2,4.42-3.76,1.34-1.76,2.16-3.51,2.46-5.26.3-1.75.14-3.39-.49-4.91-.62-1.52-1.65-2.83-3.07-3.92s-2.96-1.73-4.59-1.93c-1.63-.2-3.26.08-4.87.83s-3.08,2-4.42,3.76c-1.34,1.75-2.15,3.5-2.45,5.25ZM105.32,24.55c.26-1.15.87-2.34,1.81-3.57.94-1.24,1.93-2.13,2.97-2.69,1.03-.56,2.06-.8,3.07-.72,1.01.08,1.96.46,2.85,1.13.89.68,1.5,1.49,1.85,2.45.34.96.38,2.01.12,3.15-.26,1.15-.87,2.34-1.81,3.57-.94,1.24-1.93,2.13-2.97,2.69-1.03.56-2.06.8-3.07.72-1.01-.08-1.96-.46-2.85-1.14-.89-.68-1.5-1.49-1.85-2.45-.35-.96-.39-2.01-.12-3.15Z"/>
      <path class="cls-1" d="M115.25,42.21l6.25-4.17,2.1,3.14-4.01,7.52,2.3,3.45,4.3-8.22c.12.08.23.17.35.24,1.04.61,2.11.88,3.22.8,1.11-.07,2.21-.47,3.31-1.2,1.09-.73,1.89-1.59,2.4-2.6s.7-2.1.56-3.3c-.14-1.2-.65-2.45-1.52-3.76l-4.27-6.4-17.05,11.39,2.06,3.09ZM131.62,35.38c.51.77.82,1.48.92,2.12s.02,1.22-.25,1.75c-.27.53-.71.99-1.31,1.4-.61.4-1.19.63-1.76.67-.57.04-1.13-.11-1.67-.46-.54-.35-1.07-.9-1.58-1.67l-1.9-2.85,5.66-3.78,1.89,2.83Z"/>
      <polygon class="cls-1" points="123.15 56.78 129.05 55.21 132.23 56.72 125.31 64.89 126.46 69.21 135.32 58.57 146.26 63.86 145.09 59.48 133.92 54.17 133.86 53.93 142.96 51.5 142.01 47.91 122.19 53.19 123.15 56.78"/>
      <polygon class="cls-1" points="146.64 81.35 147.57 77.47 126.28 78.33 125.42 81.89 138.46 89.24 138.43 89.4 123.48 90.04 122.62 93.61 141.23 104.01 142.15 100.12 128.35 93.02 128.39 92.84 143.97 92.5 144.82 88.97 131.08 81.63 131.12 81.44 146.64 81.35"/>
      <path class="cls-1" d="M129.57,103.21c-1.77-1.31-3.53-2.1-5.29-2.37-1.75-.27-3.39-.09-4.91.56-1.52.64-2.81,1.68-3.88,3.13-1.07,1.44-1.69,2.98-1.86,4.62s.13,3.25.9,4.85c.77,1.6,2.05,3.05,3.83,4.37,1.78,1.31,3.54,2.11,5.3,2.38,1.75.27,3.39.09,4.9-.56s2.81-1.69,3.87-3.13,1.69-2.98,1.86-4.62-.13-3.25-.9-4.85c-.77-1.6-2.05-3.05-3.83-4.37ZM129.76,115.07c-.66.9-1.47,1.52-2.42,1.88-.95.36-2,.42-3.15.17-1.15-.25-2.35-.83-3.6-1.76-1.25-.93-2.16-1.9-2.74-2.93-.57-1.03-.83-2.05-.76-3.06.07-1.02.43-1.97,1.09-2.87s1.47-1.52,2.42-1.88c.95-.36,2-.42,3.15-.17,1.15.25,2.35.83,3.6,1.76,1.25.93,2.16,1.9,2.74,2.93.57,1.03.83,2.05.76,3.06-.06,1.02-.43,1.97-1.09,2.87Z"/>
      <path class="cls-1" d="M106.24,114.65l4.27,6.18-3.11,2.15-7.58-3.89-3.41,2.35,8.28,4.17c-.08.12-.17.24-.24.36-.59,1.05-.84,2.12-.76,3.23s.51,2.21,1.25,3.29c.74,1.08,1.62,1.86,2.63,2.36,1.01.5,2.12.67,3.31.51,1.19-.16,2.44-.68,3.73-1.58l6.33-4.37-11.65-16.88-3.06,2.11ZM113.32,130.91c-.76.53-1.46.85-2.1.96-.64.11-1.22.04-1.75-.23-.53-.26-1-.69-1.42-1.29-.41-.6-.64-1.18-.69-1.75s.1-1.13.43-1.67c.34-.54.89-1.08,1.64-1.6l2.82-1.94,3.87,5.6-2.8,1.93Z"/>
      <polygon class="cls-1" points="91.79 122.76 93.45 128.64 91.99 131.84 83.71 125.05 79.42 126.26 90.19 134.96 85.06 145.98 89.43 144.74 94.56 133.5 94.8 133.43 97.37 142.5 100.94 141.49 95.36 121.75 91.79 122.76"/>
      <polygon class="cls-1" points="66.72 125.42 59.57 138.57 59.42 138.53 58.54 123.59 54.96 122.8 44.85 141.55 48.75 142.42 55.64 128.51 55.81 128.55 56.39 144.13 59.94 144.92 67.07 131.07 67.26 131.11 67.58 146.62 71.48 147.49 70.3 126.22 66.72 125.42"/>
      <path class="cls-1" d="M47.76,124.56c.25-1.76.04-3.39-.63-4.9-.67-1.51-1.73-2.78-3.19-3.83-1.46-1.05-3.01-1.64-4.65-1.79-1.64-.15-3.25.18-4.84.97-1.59.8-3.02,2.09-4.31,3.89-1.29,1.8-2.05,3.57-2.3,5.33-.25,1.76-.04,3.39.63,4.89.67,1.5,1.73,2.78,3.19,3.83,1.46,1.05,3.01,1.64,4.65,1.79,1.64.15,3.25-.18,4.84-.97,1.59-.8,3.02-2.09,4.31-3.89,1.28-1.79,2.05-3.56,2.29-5.32ZM44.13,124.09c-.23,1.15-.8,2.36-1.71,3.63-.91,1.26-1.87,2.19-2.89,2.78-1.02.59-2.03.86-3.05.81-1.02-.05-1.98-.4-2.88-1.05s-1.55-1.45-1.92-2.39c-.37-.95-.44-2-.21-3.15s.8-2.36,1.71-3.63,1.87-2.19,2.89-2.78c1.02-.59,2.04-.86,3.05-.81,1.02.05,1.98.4,2.88,1.05.91.65,1.55,1.45,1.92,2.39.37.95.44,1.99.21,3.15Z"/>
      <path class="cls-1" d="M33.67,106.73l-6.12,4.36-2.19-3.08,3.78-7.64-2.41-3.38-4.05,8.34c-.12-.08-.24-.17-.36-.23-1.05-.58-2.14-.81-3.25-.71s-2.2.54-3.27,1.3c-1.07.76-1.84,1.65-2.32,2.67-.48,1.02-.64,2.12-.46,3.32.18,1.19.72,2.43,1.63,3.71l4.46,6.26,16.7-11.9-2.16-3.03ZM17.52,114.05c-.54-.75-.87-1.45-.99-2.09-.12-.63-.05-1.22.2-1.75.25-.53.68-1.01,1.27-1.43.59-.42,1.17-.66,1.74-.72.57-.06,1.13.08,1.68.41.55.33,1.09.87,1.63,1.62l1.99,2.79-5.55,3.95-1.98-2.77Z"/>
      <polygon class="cls-1" points="25.34 92.4 19.49 94.15 16.27 92.74 22.94 84.36 21.66 80.08 13.12 90.99 2.03 86.03 3.33 90.37 14.65 95.34 14.72 95.58 5.7 98.28 6.76 101.84 26.41 95.96 25.34 92.4"/>
      <polygon class="cls-1" points="22.31 67.36 9.06 60.41 9.09 60.25 24.02 59.16 24.76 55.57 5.86 45.73 5.05 49.65 19.06 56.33 19.02 56.5 3.45 57.31 2.72 60.87 16.67 67.8 16.63 67.98 1.12 68.54 .31 72.45 21.57 70.95 22.31 67.36"/>
      <path class="cls-1" d="M17.52,46.19c1.81,1.26,3.6,2,5.36,2.21,1.76.22,3.39-.01,4.89-.7,1.5-.69,2.76-1.77,3.78-3.24,1.02-1.48,1.6-3.03,1.72-4.67.12-1.64-.23-3.25-1.05-4.82-.82-1.57-2.14-2.99-3.95-4.25-1.82-1.26-3.6-2-5.37-2.22s-3.39.02-4.88.71c-1.49.69-2.75,1.77-3.78,3.25-1.02,1.47-1.6,3.03-1.72,4.67-.12,1.64.23,3.25,1.05,4.82.82,1.57,2.14,2.99,3.95,4.25ZM16.98,34.34c.64-.92,1.42-1.57,2.36-1.96.94-.39,1.99-.48,3.14-.26,1.16.21,2.37.76,3.65,1.65,1.28.89,2.22,1.83,2.82,2.84s.89,2.02.85,3.04-.37,1.98-1.01,2.9-1.42,1.57-2.36,1.96c-.94.39-1.99.47-3.14.26-1.16-.21-2.37-.76-3.65-1.65-1.28-.89-2.22-1.83-2.82-2.84-.6-1.01-.89-2.02-.85-3.04.04-1.02.37-1.98,1.01-2.9Z"/>
      <path class="cls-1" d="M40.52,34.04l-4.45-6.05,3.05-2.24,7.69,3.67,3.34-2.45-8.4-3.93c.07-.12.16-.24.23-.37.56-1.06.78-2.15.66-3.25-.12-1.11-.57-2.19-1.35-3.25-.78-1.05-1.68-1.82-2.7-2.28-1.03-.47-2.13-.61-3.32-.41s-2.42.76-3.69,1.69l-6.2,4.55,12.14,16.53,3-2.2ZM32.96,18c.75-.55,1.44-.89,2.07-1.02s1.22-.07,1.76.18,1.02.66,1.45,1.25c.43.59.68,1.16.74,1.73.07.57-.06,1.13-.38,1.69-.32.55-.85,1.1-1.6,1.65l-2.76,2.03-4.03-5.49,2.74-2.02Z"/>
      <polygon class="cls-1" points="54.73 25.5 52.89 19.67 54.25 16.43 62.73 22.98 66.99 21.63 55.96 13.26 60.76 2.09 56.43 3.46 51.63 14.85 51.39 14.93 48.56 5.94 45.02 7.06 51.18 26.62 54.73 25.5"/>
    </g>
  </g>
</svg>